<svg width="1440" height="825" viewBox="0 0 1440 825" fill="none" xmlns="http://www.w3.org/2000/svg">
<g clip-path="url(#clip0_2007_14)">
<g filter="url(#filter0_f_2007_14)">
<path d="M1240 775C1240 692.157 1307.16 625 1390 625C1472.84 625 1540 692.157 1540 775C1540 857.843 1472.84 925 1390 925C1307.16 925 1240 857.843 1240 775Z" fill="#2E77AE"/>
</g>
<g filter="url(#filter1_f_2007_14)">
<path d="M-100 50C-100 -32.8427 -32.8427 -100 50 -100C132.843 -100 200 -32.8427 200 50C200 132.843 132.843 200 50 200C-32.8427 200 -100 132.843 -100 50Z" fill="#2E77AE"/>
</g>
</g>
<defs>
<filter id="filter0_f_2007_14" x="990" y="375" width="800" height="800" filterUnits="userSpaceOnUse" color-interpolation-filters="sRGB">
<feFlood flood-opacity="0" result="BackgroundImageFix"/>
<feBlend mode="normal" in="SourceGraphic" in2="BackgroundImageFix" result="shape"/>
<feGaussianBlur stdDeviation="125" result="effect1_foregroundBlur_2007_14"/>
</filter>
<filter id="filter1_f_2007_14" x="-350" y="-350" width="800" height="800" filterUnits="userSpaceOnUse" color-interpolation-filters="sRGB">
<feFlood flood-opacity="0" result="BackgroundImageFix"/>
<feBlend mode="normal" in="SourceGraphic" in2="BackgroundImageFix" result="shape"/>
<feGaussianBlur stdDeviation="125" result="effect1_foregroundBlur_2007_14"/>
</filter>
<clipPath id="clip0_2007_14">
<rect width="1440" height="825" fill="white"/>
</clipPath>
</defs>
</svg>
