<svg xmlns="http://www.w3.org/2000/svg" width="22" height="22" viewBox="0 0 22 22" fill="none">
<g id="EOS_ROUTE_FILLED">
<path id="Vector" d="M5.51466 4.12714C5.15614 4.12687 4.80108 4.19729 4.4698 4.33437C4.13852 4.47145 3.83751 4.6725 3.584 4.92601C3.33048 5.17952 3.12943 5.48053 2.99235 5.81181C2.85527 6.14309 2.78485 6.49815 2.78511 6.85667C2.78511 8.90383 5.51466 11.9258 5.51466 11.9258C5.51466 11.9258 8.2442 8.90384 8.2442 6.85667C8.24446 6.49815 8.17404 6.14309 8.03696 5.81181C7.89988 5.48053 7.69883 5.17952 7.44532 4.92601C7.19181 4.6725 6.8908 4.47145 6.55952 4.33437C6.22824 4.1973 5.87318 4.12687 5.51466 4.12714ZM5.51466 7.83152C5.32186 7.83152 5.13338 7.77434 4.97307 7.66723C4.81276 7.56011 4.68781 7.40786 4.61403 7.22973C4.54024 7.05161 4.52094 6.8556 4.55855 6.6665C4.59617 6.4774 4.68901 6.3037 4.82534 6.16737C4.96167 6.03103 5.13537 5.93819 5.32447 5.90057C5.51357 5.86296 5.70958 5.88226 5.88771 5.95604C6.06584 6.02982 6.21809 6.15477 6.3252 6.31508C6.43232 6.47539 6.4895 6.66386 6.4895 6.85667C6.48941 7.11518 6.38667 7.36309 6.20387 7.54588C6.02108 7.72868 5.77318 7.83142 5.51466 7.83152Z" fill="url(#paint0_linear_173_1083)"/>
<path id="Vector_2" d="M19.2721 10.3549V6.4137C19.2657 5.9995 19.2023 5.58811 19.0846 5.19094C18.783 4.14253 18.117 3.23622 17.2066 2.63514C16.2962 2.03405 15.2011 1.77767 14.1185 1.91213C13.0359 2.04659 12.0368 2.56307 11.3011 3.36861C10.5654 4.17414 10.1414 5.21582 10.1054 6.30616V6.53264L10.0967 7.33036V15.6005L10.0968 16.4526H10.0922L10.0925 16.4909C10.0925 16.9771 9.8993 17.4434 9.55548 17.7873C9.21167 18.1311 8.74535 18.3242 8.25912 18.3242C7.77289 18.3242 7.30657 18.1311 6.96276 17.7873C6.61894 17.4434 6.42579 16.9771 6.42579 16.4909C6.42579 16.4794 6.42898 16.4687 6.4292 16.4572H6.42583V14.6758H4.5925V16.5092H4.59433C4.59861 17.4787 4.98694 18.4071 5.67426 19.091C6.36159 19.7749 7.29192 20.1586 8.26152 20.158C9.23113 20.1575 10.161 19.7727 10.8475 19.088C11.534 18.4033 11.9213 17.4744 11.9244 16.5048H11.9258V15.6047H11.93V8.24703L11.9388 6.53259V6.30622C11.9672 5.58614 12.277 4.90597 12.8016 4.41193C13.3263 3.91789 14.0238 3.64942 14.7443 3.66424C15.4648 3.67907 16.1507 3.97601 16.6545 4.49122C17.1584 5.00642 17.44 5.69877 17.4388 6.4194V10.3385C17.0877 10.5371 16.8121 10.846 16.6545 11.2173C16.4969 11.5885 16.4662 12.0014 16.5672 12.3919C16.6681 12.7824 16.8951 13.1287 17.2129 13.377C17.5307 13.6254 17.9215 13.762 18.3248 13.7656C18.7282 13.7692 19.1214 13.6396 19.4436 13.397C19.7658 13.1543 19.9989 12.8122 20.1068 12.4236C20.2148 12.035 20.1914 11.6216 20.0405 11.2476C19.8896 10.8735 19.6195 10.5597 19.2721 10.3549Z" fill="url(#paint1_linear_173_1083)"/>
</g>
<defs>
<linearGradient id="paint0_linear_173_1083" x1="5.51466" y1="4.12714" x2="5.51466" y2="11.9258" gradientUnits="userSpaceOnUse">
<stop stop-color="#2E77AE"/>
<stop offset="1" stop-color="#0D2137"/>
</linearGradient>
<linearGradient id="paint1_linear_173_1083" x1="12.3831" y1="1.8772" x2="12.3831" y2="20.158" gradientUnits="userSpaceOnUse">
<stop stop-color="#2E77AE"/>
<stop offset="1" stop-color="#0D2137"/>
</linearGradient>
</defs>
</svg>