<svg xmlns="http://www.w3.org/2000/svg" width="20" height="20" viewBox="0 0 20 20" fill="none">
<g id="EOS_BACKGROUND_TASKS_FILLED" clip-path="url(#clip0_173_1103)">
<path id="Vector" d="M12.4917 2.5H5V3.75H12.4917V2.5Z" fill="url(#paint0_linear_173_1103)"/>
<path id="Vector_2" d="M3.74164 5H2.49164V6.25H3.74164V5Z" fill="url(#paint1_linear_173_1103)"/>
<path id="Vector_3" d="M3.74164 2.5H2.49164V3.75H3.74164V2.5Z" fill="url(#paint2_linear_173_1103)"/>
<path id="Vector_4" d="M3.74997 7.50836H2.49164V8.75836H3.74997V7.50836Z" fill="url(#paint3_linear_173_1103)"/>
<path id="Vector_5" d="M3.75 10H1.25V1.24167H13.75V5H15V1.66667C15 1.22464 14.8244 0.800716 14.5118 0.488155C14.1993 0.175595 13.7754 0 13.3333 0L1.66667 0C1.22464 0 0.800716 0.175595 0.488155 0.488155C0.175595 0.800716 0 1.22464 0 1.66667L0 9.56667C0 10.0087 0.175595 10.4326 0.488155 10.7452C0.800716 11.0577 1.22464 11.2333 1.66667 11.2333H3.75V10Z" fill="url(#paint4_linear_173_1103)"/>
<path id="Vector_6" d="M18.3333 6.25H6.66667C6.22464 6.25 5.80072 6.4256 5.48816 6.73816C5.17559 7.05072 5 7.47464 5 7.91667V15.8333C5 16.2754 5.17559 16.6993 5.48816 17.0118C5.80072 17.3244 6.22464 17.5 6.66667 17.5H11.275V18.775H10V20H15V18.7583H13.75V17.5H18.3333C18.7754 17.5 19.1993 17.3244 19.5118 17.0118C19.8244 16.6993 20 16.2754 20 15.8333V7.91667C20 7.47464 19.8244 7.05072 19.5118 6.73816C19.1993 6.4256 18.7754 6.25 18.3333 6.25ZM18.7583 16.25H6.25833V7.5H18.7583V16.25Z" fill="url(#paint5_linear_173_1103)"/>
</g>
<defs>
<linearGradient id="paint0_linear_173_1103" x1="8.74583" y1="2.5" x2="8.74583" y2="3.75" gradientUnits="userSpaceOnUse">
<stop stop-color="#2E77AE"/>
<stop offset="1" stop-color="#0D2137"/>
</linearGradient>
<linearGradient id="paint1_linear_173_1103" x1="3.11664" y1="5" x2="3.11664" y2="6.25" gradientUnits="userSpaceOnUse">
<stop stop-color="#2E77AE"/>
<stop offset="1" stop-color="#0D2137"/>
</linearGradient>
<linearGradient id="paint2_linear_173_1103" x1="3.11664" y1="2.5" x2="3.11664" y2="3.75" gradientUnits="userSpaceOnUse">
<stop stop-color="#2E77AE"/>
<stop offset="1" stop-color="#0D2137"/>
</linearGradient>
<linearGradient id="paint3_linear_173_1103" x1="3.1208" y1="7.50836" x2="3.1208" y2="8.75836" gradientUnits="userSpaceOnUse">
<stop stop-color="#2E77AE"/>
<stop offset="1" stop-color="#0D2137"/>
</linearGradient>
<linearGradient id="paint4_linear_173_1103" x1="7.5" y1="0" x2="7.5" y2="11.2333" gradientUnits="userSpaceOnUse">
<stop stop-color="#2E77AE"/>
<stop offset="1" stop-color="#0D2137"/>
</linearGradient>
<linearGradient id="paint5_linear_173_1103" x1="12.5" y1="6.25" x2="12.5" y2="20" gradientUnits="userSpaceOnUse">
<stop stop-color="#2E77AE"/>
<stop offset="1" stop-color="#0D2137"/>
</linearGradient>
<clipPath id="clip0_173_1103">
<rect width="20" height="20" fill="white"/>
</clipPath>
</defs>
</svg>