<svg xmlns="http://www.w3.org/2000/svg" width="21" height="20" viewBox="0 0 21 20" fill="none">
<path id="Icon" d="M14 2.92916L16 4.85832L20 1M10.5 1H5.8C4.11984 1 3.27976 1 2.63803 1.3154C2.07354 1.59283 1.6146 2.03552 1.32698 2.58001C1 3.19901 1 4.00934 1 5.62998V13.7325C1 15.3531 1 16.1634 1.32698 16.7824C1.6146 17.3269 2.07354 17.7696 2.63803 18.047C3.27976 18.3624 4.11984 18.3624 5.8 18.3624H15C15.93 18.3624 16.395 18.3624 16.7765 18.2638C17.8117 17.9963 18.6204 17.2163 18.8978 16.2177C19 15.8497 19 15.4011 19 14.5041M8.5 6.30519C8.5 7.37063 7.60457 8.23435 6.5 8.23435C5.39543 8.23435 4.5 7.37063 4.5 6.30519C4.5 5.23974 5.39543 4.37603 6.5 4.37603C7.60457 4.37603 8.5 5.23974 8.5 6.30519ZM12.99 9.60226L4.53115 17.0198C4.05536 17.437 3.81747 17.6456 3.79643 17.8263C3.77819 17.983 3.84045 18.1383 3.96319 18.2424C4.10478 18.3624 4.42628 18.3624 5.06929 18.3624H14.456C15.8951 18.3624 16.6147 18.3624 17.1799 18.1292C17.8894 17.8365 18.4547 17.2912 18.7582 16.6068C19 16.0617 19 15.3676 19 13.9794C19 13.5123 19 13.2787 18.9471 13.0613C18.8805 12.7879 18.753 12.5319 18.5733 12.311C18.4303 12.1353 18.2412 11.9894 17.8631 11.6976L15.0658 9.5391C14.6874 9.24707 14.4982 9.10106 14.2898 9.04953C14.1061 9.00411 13.9129 9.00999 13.7325 9.06648C13.5279 9.13058 13.3486 9.28781 12.99 9.60226Z" stroke="url(#paint0_linear_173_1205)" stroke-width="2" stroke-linecap="round" stroke-linejoin="round"/>
<defs>
<linearGradient id="paint0_linear_173_1205" x1="10.5" y1="1" x2="10.5" y2="18.3624" gradientUnits="userSpaceOnUse">
<stop stop-color="#2E77AE"/>
<stop offset="1" stop-color="#0D2137"/>
</linearGradient>
</defs>
</svg>