<svg xmlns="http://www.w3.org/2000/svg" width="20" height="20" viewBox="0 0 20 20" fill="none">
<g id="EOS_PROJECT_OUTLINED">
<path id="Vector" d="M9.99999 5.83335C10.4602 5.83335 10.8333 5.46026 10.8333 5.00002C10.8333 4.53978 10.4602 4.16669 9.99999 4.16669C9.53975 4.16669 9.16666 4.53978 9.16666 5.00002C9.16666 5.46026 9.53975 5.83335 9.99999 5.83335Z" fill="url(#paint0_linear_173_1123)"/>
<path id="Vector_2" d="M15 14.1667H5V15.8334H15V14.1667Z" fill="url(#paint1_linear_173_1123)"/>
<path id="Vector_3" d="M8.33333 9.85835L10.66 12.1867L13.9367 8.90752L15 10V6.66669H11.6667L12.7583 7.72919L10.6592 9.82835L8.33333 7.50002L5 10.8334L6.17833 12.0117L8.33333 9.85835Z" fill="url(#paint2_linear_173_1123)"/>
<path id="Vector_4" d="M15.8333 2.49998H13.0851C13.0035 2.37695 12.9144 2.25828 12.8189 2.14572L12.81 2.136C12.1977 1.42296 11.3363 0.970567 10.4017 0.871205C10.1363 0.820682 9.86376 0.820682 9.59839 0.871205C8.66379 0.970567 7.80237 1.42296 7.19006 2.136L7.18111 2.14572C7.08561 2.25828 6.99684 2.37639 6.91527 2.49942L4.16666 2.49998C3.50384 2.5007 2.86837 2.76433 2.39969 3.23301C1.931 3.7017 1.66738 4.33716 1.66666 4.99998V16.6666C1.66738 17.3295 1.931 17.9649 2.39969 18.4336C2.86837 18.9023 3.50384 19.1659 4.16666 19.1666H15.8333C16.4961 19.1659 17.1316 18.9023 17.6003 18.4336C18.069 17.9649 18.3326 17.3295 18.3333 16.6666V4.99998C18.3326 4.33716 18.069 3.7017 17.6003 3.23301C17.1316 2.76433 16.4961 2.5007 15.8333 2.49998ZM16.6667 16.6666C16.6665 16.8876 16.5787 17.0995 16.4224 17.2557C16.2662 17.412 16.0543 17.4998 15.8333 17.5H4.16666C3.94571 17.4998 3.73388 17.4119 3.57764 17.2557C3.42141 17.0994 3.33354 16.8876 3.33332 16.6666V4.99998C3.33361 4.77905 3.4215 4.56726 3.57772 4.41104C3.73394 4.25482 3.94573 4.16693 4.16666 4.16665H7.95867C8.05473 3.69614 8.31037 3.27327 8.68234 2.96957C9.05432 2.66586 9.51978 2.49998 9.99999 2.49998C10.4802 2.49998 10.9457 2.66586 11.3176 2.96957C11.6896 3.27327 11.9452 3.69614 12.0413 4.16665H15.8333C16.0543 4.16687 16.2661 4.25474 16.4223 4.41097C16.5786 4.5672 16.6664 4.77903 16.6667 4.99998V16.6666Z" fill="url(#paint3_linear_173_1123)"/>
</g>
<defs>
<linearGradient id="paint0_linear_173_1123" x1="9.99999" y1="4.16669" x2="9.99999" y2="5.83335" gradientUnits="userSpaceOnUse">
<stop stop-color="#2E77AE"/>
<stop offset="1" stop-color="#0D2137"/>
</linearGradient>
<linearGradient id="paint1_linear_173_1123" x1="10" y1="14.1667" x2="10" y2="15.8334" gradientUnits="userSpaceOnUse">
<stop stop-color="#2E77AE"/>
<stop offset="1" stop-color="#0D2137"/>
</linearGradient>
<linearGradient id="paint2_linear_173_1123" x1="10" y1="6.66669" x2="10" y2="12.1867" gradientUnits="userSpaceOnUse">
<stop stop-color="#2E77AE"/>
<stop offset="1" stop-color="#0D2137"/>
</linearGradient>
<linearGradient id="paint3_linear_173_1123" x1="9.99999" y1="0.833313" x2="9.99999" y2="19.1666" gradientUnits="userSpaceOnUse">
<stop stop-color="#2E77AE"/>
<stop offset="1" stop-color="#0D2137"/>
</linearGradient>
</defs>
</svg>