<svg xmlns="http://www.w3.org/2000/svg" width="16" height="23" viewBox="0 0 16 23" fill="none">
<path id="Icon" d="M11 0.999939V2.41787C11 2.9851 11 3.26871 10.891 3.48536C10.7951 3.67593 10.6422 3.83087 10.454 3.92798C10.2401 4.03837 9.96005 4.03837 9.4 4.03837H6.6C6.03995 4.03837 5.75992 4.03837 5.54601 3.92798C5.35785 3.83087 5.20487 3.67593 5.10899 3.48536C5 3.26871 5 2.9851 5 2.41787V0.999939M4.2 21.2561H11.8C12.9201 21.2561 13.4802 21.2561 13.908 21.0353C14.2843 20.8411 14.5903 20.5313 14.782 20.1501C15 19.7168 15 19.1496 15 18.0151V4.24093C15 3.10647 15 2.53925 14.782 2.10595C14.5903 1.7248 14.2843 1.41492 13.908 1.22072C13.4802 0.999939 12.9201 0.999939 11.8 0.999939H4.2C3.0799 0.999939 2.51984 0.999939 2.09202 1.22072C1.71569 1.41492 1.40973 1.7248 1.21799 2.10595C1 2.53925 1 3.10648 1 4.24093V18.0151C1 19.1496 1 19.7168 1.21799 20.1501C1.40973 20.5313 1.71569 20.8411 2.09202 21.0353C2.51984 21.2561 3.07989 21.2561 4.2 21.2561Z" stroke="url(#paint0_linear_173_1190)" stroke-width="2" stroke-linecap="round" stroke-linejoin="round"/>
<defs>
<linearGradient id="paint0_linear_173_1190" x1="8" y1="0.999939" x2="8" y2="21.2561" gradientUnits="userSpaceOnUse">
<stop stop-color="#2E77AE"/>
<stop offset="1" stop-color="#0D2137"/>
</linearGradient>
</defs>
</svg>