<svg xmlns="http://www.w3.org/2000/svg" width="22" height="24" viewBox="0 0 22 24" fill="none">
<path fill-rule="evenodd" clip-rule="evenodd" d="M13.1887 2.00793C12.9861 1.97595 12.7827 2.04191 12.6209 2.18381C12.4545 2.32771 12.3506 2.53557 12.328 2.76841C12.28 3.23908 12.5883 3.66479 13.0151 3.71776C15.9579 4.07951 18.2452 6.60477 18.5761 9.85654C18.6204 10.2922 18.9522 10.621 19.3482 10.621C19.3781 10.621 19.407 10.619 19.4368 10.615C19.6439 10.59 19.8283 10.4771 19.9585 10.2972C20.0878 10.1174 20.1465 9.89351 20.123 9.66467C19.7108 5.60746 16.8602 2.45862 13.1887 2.00793ZM13.2452 5.48994C12.813 5.402 12.4161 5.70579 12.3338 6.17047C12.2516 6.63515 12.5282 7.08884 12.9486 7.17978C14.2143 7.45159 15.1917 8.53085 15.4394 9.92989V9.93089C15.5099 10.3336 15.8318 10.6264 16.2024 10.6264C16.2522 10.6264 16.3019 10.6214 16.3525 10.6114C16.7729 10.5185 17.0496 10.0658 16.9673 9.60012C16.5975 7.51055 15.1374 5.89666 13.2452 5.48994ZM14.6813 15.0905C15.0912 14.8302 15.5541 14.5362 16.138 14.673C16.6669 14.7959 18.4696 16.4078 18.9633 16.9665C19.2869 17.3322 19.4669 17.7099 19.4949 18.0877C19.5437 19.5697 17.7156 21.2615 17.3829 21.4724C16.9408 21.8231 16.4264 22 15.8487 22C15.2583 22 14.6001 21.8151 13.8823 21.4464C9.98745 19.6556 4.03762 13.231 2.4645 8.97395C1.81174 7.38903 1.80722 6.08193 2.45365 5.09961C2.71131 4.63892 4.18046 2.71325 5.49592 2.7742C5.8458 2.80718 6.18574 3.00504 6.51935 3.3648C7.02383 3.90942 8.45049 5.90106 8.56079 6.48565C8.68284 7.13521 8.41523 7.65185 8.17745 8.10554C8.12674 8.20307 8.05841 8.31881 7.98355 8.4456C7.69943 8.92683 7.32128 9.56735 7.45509 9.97626C8.41433 12.5705 10.6303 14.8339 12.9863 15.8972C13.3507 16.0431 13.9318 15.6235 14.3673 15.3092C14.4807 15.2273 14.5843 15.1525 14.6715 15.0967L14.6813 15.0905Z" fill="white"/>
</svg>