<svg xmlns="http://www.w3.org/2000/svg" width="23" height="23" viewBox="0 0 23 23" fill="none">
<g id="EOS_CRONJOB_FILLED">
<path id="Vector" d="M15.3536 0.978943H9.60358V2.89561H15.3536V0.978943Z" fill="url(#paint0_linear_173_1094)"/>
<path id="Vector_2" d="M19.2054 7.10127L20.5794 5.7273L19.2241 4.37207L17.8506 5.74558C16.3461 4.5401 14.4806 3.87418 12.5528 3.8544C10.625 3.83461 8.7463 4.46209 7.21733 5.63643L8.57817 7.01643C9.71513 6.2089 11.0744 5.77365 12.469 5.7706L12.4788 5.77107L12.4783 12.4594L17.225 17.2117C16.2879 18.1529 15.0926 18.7948 13.7903 19.0562C12.4881 19.3175 11.1376 19.1864 9.90995 18.6796C8.68226 18.1728 7.63262 17.313 6.89397 16.2092C6.15531 15.1054 5.76088 13.8071 5.76065 12.4789H8.63565L4.80231 8.64561L0.968979 12.4789H3.84398C3.84261 13.8572 4.17159 15.2158 4.80333 16.4408C5.43508 17.6658 6.35121 18.7215 7.47496 19.5196C8.59871 20.3176 9.89735 20.8348 11.2621 21.0276C12.6268 21.2205 14.0179 21.0835 15.3188 20.6281C16.6197 20.1727 17.7925 19.4121 18.739 18.4102C19.6854 17.4082 20.378 16.194 20.7586 14.8693C21.1392 13.5446 21.1968 12.148 20.9266 10.7964C20.6563 9.44487 20.0661 8.17777 19.2054 7.10127Z" fill="url(#paint1_linear_173_1094)"/>
</g>
<defs>
<linearGradient id="paint0_linear_173_1094" x1="12.4786" y1="0.978943" x2="12.4786" y2="2.89561" gradientUnits="userSpaceOnUse">
<stop stop-color="#2E77AE"/>
<stop offset="1" stop-color="#0D2137"/>
</linearGradient>
<linearGradient id="paint1_linear_173_1094" x1="11.0315" y1="3.85394" x2="11.0315" y2="21.1125" gradientUnits="userSpaceOnUse">
<stop stop-color="#2E77AE"/>
<stop offset="1" stop-color="#0D2137"/>
</linearGradient>
</defs>
</svg>