<svg xmlns="http://www.w3.org/2000/svg" width="20" height="22" viewBox="0 0 20 22" fill="none">
<path id="Icon" d="M15 18.3624H14.8C13.1198 18.3624 12.2798 18.3624 11.638 18.047C11.0735 17.7696 10.6146 17.3269 10.327 16.7824C10 16.1634 10 15.3531 10 13.7325V7.55914C10 5.9385 10 5.12817 10.327 4.50917C10.6146 3.96468 11.0735 3.52199 11.638 3.24456C12.2798 2.92916 13.1198 2.92916 14.8 2.92916H15M15 18.3624C15 19.4279 15.8954 20.2916 17 20.2916C18.1046 20.2916 19 19.4279 19 18.3624C19 17.297 18.1046 16.4333 17 16.4333C15.8954 16.4333 15 17.297 15 18.3624ZM15 2.92916C15 3.99461 15.8954 4.85832 17 4.85832C18.1046 4.85832 19 3.99461 19 2.92916C19 1.86371 18.1046 1 17 1C15.8954 1 15 1.86371 15 2.92916ZM5 10.6458L15 10.6458M5 10.6458C5 11.7112 4.10457 12.575 3 12.575C1.89543 12.575 1 11.7112 1 10.6458C1 9.58035 1.89543 8.71664 3 8.71664C4.10457 8.71664 5 9.58035 5 10.6458ZM15 10.6458C15 11.7112 15.8954 12.575 17 12.575C18.1046 12.575 19 11.7112 19 10.6458C19 9.58035 18.1046 8.71664 17 8.71664C15.8954 8.71664 15 9.58035 15 10.6458Z" stroke="url(#paint0_linear_173_1215)" stroke-width="2" stroke-linecap="round" stroke-linejoin="round"/>
<defs>
<linearGradient id="paint0_linear_173_1215" x1="10" y1="1" x2="10" y2="20.2916" gradientUnits="userSpaceOnUse">
<stop stop-color="#2E77AE"/>
<stop offset="1" stop-color="#0D2137"/>
</linearGradient>
</defs>
</svg>