<svg width="56" height="6" viewBox="0 0 56 6" fill="none" xmlns="http://www.w3.org/2000/svg">
<g clip-path="url(#clip0_2005_6)">
<path d="M43 3C43 1.34315 41.6569 0 40 0H3C1.34314 0 0 1.34315 0 3V3C0 4.65685 1.34315 6 3 6H40C41.6569 6 43 4.65685 43 3V3Z" fill="url(#paint0_linear_2005_6)"/>
<path d="M48 3C48 1.34315 49.3431 0 51 0H53C54.6569 0 56 1.34315 56 3V3C56 4.65685 54.6569 6 53 6H51C49.3431 6 48 4.65685 48 3V3Z" fill="url(#paint1_linear_2005_6)"/>
</g>
<defs>
<linearGradient id="paint0_linear_2005_6" x1="21.5" y1="-3.57628e-07" x2="21.5" y2="6" gradientUnits="userSpaceOnUse">
<stop stop-color="#2E77AE"/>
<stop offset="1" stop-color="#0D2137"/>
</linearGradient>
<linearGradient id="paint1_linear_2005_6" x1="52" y1="0" x2="52" y2="6" gradientUnits="userSpaceOnUse">
<stop stop-color="#2E77AE"/>
<stop offset="1" stop-color="#0D2137"/>
</linearGradient>
<clipPath id="clip0_2005_6">
<rect width="56" height="6" fill="white"/>
</clipPath>
</defs>
</svg>
